<?xml version="1.0" encoding="utf-8"?>
<!-- Generator: Adobe Illustrator 27.0.0, SVG Export Plug-In . SVG Version: 6.00 Build 0)  -->
<svg version="1.1" xmlns="http://www.w3.org/2000/svg" xmlns:xlink="http://www.w3.org/1999/xlink" x="0px" y="0px"
	 viewBox="0 0 324 198" style="enable-background:new 0 0 324 198;" xml:space="preserve">
<style type="text/css">
	.st0{fill:#B43393;}
	.st1{fill:#D17CB3;}
	.st2{fill:#F4D7E7;}
	.st3{fill:#E9B7D5;}
	.st4{fill:#DF9AC4;}
	.st5{fill:#C45DA3;}
	.st6{fill:#5A2D81;}
	.st7{fill:#1D2A5D;}
	.st8{fill:#734A95;}
</style>
<g id="Layer_1">
	
		<rect x="162.2" y="58.4" transform="matrix(0.7071 -0.7071 0.7071 0.7071 2.0911 141.8498)" class="st0" width="20.1" height="20.1"/>
	
		<rect x="86.4" y="96.1" transform="matrix(0.7071 -0.7071 0.7071 0.7071 -46.8202 99.2843)" class="st1" width="20.1" height="20.1"/>
	
		<rect x="29.6" y="152.9" transform="matrix(0.7071 -0.7071 0.7071 0.7071 -103.6178 75.758)" class="st2" width="20.1" height="20.1"/>
	
		<rect x="48.5" y="134" transform="matrix(0.7071 -0.7071 0.7071 0.7071 -84.6853 83.6001)" class="st3" width="20.1" height="20.1"/>
	
		<rect x="67.5" y="115.1" transform="matrix(0.7071 -0.7071 0.7071 0.7071 -65.7528 91.4422)" class="st4" width="20.1" height="20.1"/>
	
		<rect x="105.3" y="77.2" transform="matrix(0.7071 -0.7071 0.7071 0.7071 -27.8877 107.1264)" class="st5" width="20.1" height="20.1"/>
	
		<rect x="124.3" y="58.3" transform="matrix(0.7071 -0.7071 0.7071 0.7071 -8.9552 114.9685)" class="st0" width="20.1" height="20.1"/>
	
		<rect x="143.2" y="39.3" transform="matrix(0.7071 -0.7071 0.7071 0.7071 9.9773 122.8106)" class="st6" width="20.1" height="20.1"/>
	
		<rect x="162.1" y="20.4" transform="matrix(0.7071 -0.7071 0.7071 0.7071 28.9099 130.6527)" class="st7" width="20.1" height="20.1"/>
	
		<rect x="105.4" y="115.2" transform="matrix(0.7071 -0.7071 0.7071 0.7071 -54.7065 118.3235)" class="st3" width="20.1" height="20.1"/>
	
		<rect x="124.4" y="96.2" transform="matrix(0.7071 -0.7071 0.7071 0.7071 -35.774 126.1656)" class="st4" width="20.1" height="20.1"/>
	
		<rect x="143.3" y="77.3" transform="matrix(0.7071 -0.7071 0.7071 0.7071 -16.8415 134.0077)" class="st1" width="20.1" height="20.1"/>
	
		<rect x="181.2" y="39.4" transform="matrix(0.7071 -0.7071 0.7071 0.7071 21.0236 149.6919)" class="st8" width="20.1" height="20.1"/>
	
		<rect x="200.2" y="58.5" transform="matrix(0.7071 -0.7071 0.7071 0.7071 13.1373 168.7311)" class="st0" width="20.1" height="20.1"/>
	
		<rect x="162.5" y="134.3" transform="matrix(0.7071 -0.7071 0.7071 0.7071 -51.5466 164.244)" class="st4" width="20.1" height="20.1"/>
	
		<rect x="181.4" y="115.4" transform="matrix(0.7071 -0.7071 0.7071 0.7071 -32.614 172.0861)" class="st5" width="20.1" height="20.1"/>
	
		<rect x="200.3" y="96.4" transform="matrix(0.7071 -0.7071 0.7071 0.7071 -13.6815 179.9282)" class="st0" width="20.1" height="20.1"/>
	
		<rect x="219.3" y="77.5" transform="matrix(0.7071 -0.7071 0.7071 0.7071 5.251 187.7703)" class="st6" width="20.1" height="20.1"/>
	
		<rect x="219.4" y="115.5" transform="matrix(0.7071 -0.7071 0.7071 0.7071 -21.5678 198.9674)" class="st4" width="20.1" height="20.1"/>
	
		<rect x="238.3" y="96.6" transform="matrix(0.7071 -0.7071 0.7071 0.7071 -2.6353 206.8095)" class="st0" width="20.1" height="20.1"/>
	
		<rect x="238.2" y="58.5" transform="matrix(0.7071 -0.7071 0.7071 0.7071 24.2202 195.6276)" class="st7" width="20.1" height="20.1"/>
	
		<rect x="257.3" y="77.6" transform="matrix(0.7071 -0.7071 0.7071 0.7071 16.3339 214.6668)" class="st6" width="20.1" height="20.1"/>
	
		<rect x="276.3" y="96.6" transform="matrix(0.7071 -0.7071 0.7071 0.7071 8.4476 233.706)" class="st0" width="20.1" height="20.1"/>
</g>
<g id="Layer_2">
</g>
</svg>
