<?xml version="1.0" encoding="utf-8"?>
<!-- Generator: Adobe Illustrator 27.0.0, SVG Export Plug-In . SVG Version: 6.00 Build 0)  -->
<svg version="1.1" xmlns="http://www.w3.org/2000/svg" xmlns:xlink="http://www.w3.org/1999/xlink" x="0px" y="0px"
	 viewBox="0 0 391.3 219.3" style="enable-background:new 0 0 391.3 219.3;" xml:space="preserve">
<style type="text/css">
	.st0{fill:#FFFFFF;}
</style>
<g id="Layer_1">
	<path class="st0" d="M48.1,173.1l-21.9-62.7h10.8l17.7,55l18.2-55h10.6L61,173.1H48.1z"/>
	<path class="st0" d="M88.8,173.1v-48.2h10v48.2H88.8z"/>
	<path class="st0" d="M154.5,145.9v27.2h-10V147c0-2.3,0-4.4-0.2-6.8c-0.5-5.4-3.4-9.3-10.2-9.3c-6.9,0-12.5,5.4-12.5,20.5v21.6h-10
		v-48.2h10v8l3.3-5.5c3.8-2.9,7.4-3.7,12.2-3.7c10.4,0,16.3,5.4,17.2,13.8C154.4,139.8,154.5,142,154.5,145.9z"/>
	<path class="st0" d="M211,173.1h-10v-7.6l-3.6,5.3c-2.7,2.2-7.7,3.6-12.6,3.6c-13.8,0-21.7-10.4-21.7-24.6
		c0-17.6,10.9-26.2,23.3-26.2c4,0,9,1.1,11.4,3l3.2,4.8v-25.1h10V173.1z M201,149.4v-2.5c0-11.7-7.1-16.1-13.5-16.1
		c-7.9,0-13.9,6.1-13.9,18.1c0,10.4,4.8,18.2,13.4,18.2C194.5,167.1,201,162.3,201,149.4z"/>
	<path class="st0" d="M266.6,145.9v27.2h-10V147c0-2.3,0-4.4-0.2-6.8c-0.5-5.4-3.4-9.4-10.2-9.3c-6.9,0.2-12.5,5.4-12.5,20.5v21.6
		h-10v-67.2h10v27l3.3-5.5c3.8-2.9,7.4-3.7,12.2-3.7c10.4,0,16.3,5.4,17.2,13.8C266.6,139.8,266.6,142,266.6,145.9z"/>
	<path class="st0" d="M301.4,176.1c-4.5,11.4-9.6,16-18.3,16c-2,0-3.3,0-4.7-0.3v-7.4c1.2,0.1,2.2,0.1,3.2,0.1
		c4.5,0,7.6-1.9,9.8-7.5l0.7-1.7l-19.4-50.5h11.2l13.3,40.8l13.2-40.8H321L301.4,176.1z"/>
	<path class="st0" d="M354.5,166.1l-2.5,5.2c-3.3,2.3-7.4,3.1-12,3.1c-8.5,0-15.5-4.9-15.5-13.9c0-10.7,8.5-16.5,26.8-16.5h3.1v-1.2
		c0-1.8,0-3.5-0.2-5.3c-0.3-3.9-2.7-6.6-8.4-6.6c-5.8,0-8.8,3.3-9.4,9.3h-10c0.6-10.5,8.5-16.5,19.5-16.5c12.4,0,17.3,5.3,18.2,13.4
		c0.2,2,0.3,4.5,0.3,6.8v17c0,3.6,0.2,6.9,0.9,12.3h-9.9L354.5,166.1z M354.4,155v-4.4c-11.7-0.9-19.3,1.7-19.3,9.1
		c0,5.1,3.4,7.4,8.6,7.4C349.9,167.1,354.4,162.8,354.4,155z"/>
	<path class="st0" d="M61.8,187.5c0,4.1-2.4,6.6-5.6,7c-0.7,0.1-1,0.1-1.8,0.1h-4.1v-13.8h4.2c0.7,0,1.1,0,1.8,0.1
		C59.5,181.3,61.8,183.4,61.8,187.5z M59.9,187.5c0-3.1-1.4-4.9-3.8-5.2c-0.4-0.1-1-0.1-1.7-0.1h-2.4v11h2.3c0.7,0,1.2,0,1.7-0.1
		C58.4,192.7,59.9,190.8,59.9,187.5z"/>
	<path class="st0" d="M72.3,189.7l-1.6,4.9h-1.8l5-13.8h2.3l4.8,13.8H79l-1.6-4.9H72.3z M76.9,188.3l-2-6.2l-2.1,6.2H76.9z"/>
	<path class="st0" d="M93.2,182.2v12.4h-1.7v-12.4h-4.9v-1.4h11.6v1.4H93.2z"/>
	<path class="st0" d="M107.2,189.7l-1.6,4.9h-1.8l5-13.8h2.3l4.8,13.8h-1.9l-1.6-4.9H107.2z M111.8,188.3l-2-6.2l-2.1,6.2H111.8z"/>
	<path class="st0" d="M143.6,184.6h-1.8c-0.2-1.7-1.2-2.7-2.9-2.7c-1.5,0-2.6,0.7-2.6,2.1c0,1.5,0.9,2.1,3,2.6
		c3,0.7,4.6,1.9,4.6,4.3c0,2.4-2.1,4-4.7,4c-3,0-5-1.5-5.3-4.2h1.8c0.4,1.8,1.7,2.8,3.5,2.8c1.6,0,2.9-0.9,2.9-2.3
		c0-1.7-1-2.4-3.4-3c-2.4-0.6-4.1-1.5-4.1-3.8c0-2.4,2.1-3.9,4.6-3.9C141.9,180.5,143.4,182.3,143.6,184.6z"/>
	<path class="st0" d="M163.8,185.2l0,0.2h-1.7l0-0.2c-0.4-2-1.6-3.3-3.9-3.3c-2.8,0-4.6,2.5-4.6,5.8c0,3.4,1.7,5.8,4.4,5.8
		c2.3,0,3.5-1.3,3.9-3.3l0-0.2h1.7l0,0.2c-0.3,2.5-2.1,4.7-5.8,4.7c-4,0-6.3-3.1-6.3-7.1c0-4.2,2.6-7.2,6.5-7.2
		C161.7,180.5,163.5,182.5,163.8,185.2z"/>
	<path class="st0" d="M172.9,194.6v-13.8h1.7v13.8H172.9z"/>
	<path class="st0" d="M193.7,194.6h-9.2v-13.8h9v1.4h-7.3v4.8h6.7v1.4h-6.7v4.8h7.5V194.6z"/>
	<path class="st0" d="M210.6,194.6l-6.5-12.1c0,1.6,0.1,3.6,0.1,5.2v6.9h-1.7v-13.8h2.6l6.5,12.1c0-1.6-0.1-3.6-0.1-5.2v-6.9h1.7
		l0,13.8H210.6z"/>
	<path class="st0" d="M234.2,185.2l0,0.2h-1.7l0-0.2c-0.4-2-1.6-3.3-3.9-3.3c-2.8,0-4.6,2.5-4.6,5.8c0,3.4,1.7,5.8,4.4,5.8
		c2.3,0,3.5-1.3,3.9-3.3l0-0.2h1.7l0,0.2c-0.3,2.5-2.1,4.7-5.8,4.7c-4,0-6.3-3.1-6.3-7.1c0-4.2,2.6-7.2,6.5-7.2
		C232.1,180.5,233.9,182.5,234.2,185.2z"/>
	<path class="st0" d="M252.5,194.6h-9.2v-13.8h9v1.4h-7.3v4.8h6.7v1.4h-6.7v4.8h7.5V194.6z"/>
	
		<rect x="165.4" y="49.9" transform="matrix(0.7071 -0.7071 0.7071 0.7071 10.7871 137.3707)" class="st0" width="11.6" height="11.6"/>
	
		<rect x="121.4" y="71.7" transform="matrix(0.7071 -0.7071 0.7071 0.7071 -17.5597 112.7016)" class="st0" width="11.6" height="11.6"/>
	
		<rect x="88.5" y="104.7" transform="matrix(0.7071 -0.7071 0.7071 0.7071 -50.477 99.0668)" class="st0" width="11.6" height="11.6"/>
	
		<rect x="99.5" y="93.7" transform="matrix(0.7071 -0.7071 0.7071 0.7071 -39.5046 103.6118)" class="st0" width="11.6" height="11.6"/>
	
		<rect x="110.5" y="82.7" transform="matrix(0.7071 -0.7071 0.7071 0.7071 -28.5321 108.1567)" class="st0" width="11.6" height="11.6"/>
	
		<rect x="132.4" y="60.8" transform="matrix(0.7071 -0.7071 0.7071 0.7071 -6.5872 117.2466)" class="st0" width="11.6" height="11.6"/>
	
		<rect x="143.4" y="49.8" transform="matrix(0.7071 -0.7071 0.7071 0.7071 4.3852 121.7915)" class="st0" width="11.6" height="11.6"/>
	
		<rect x="154.4" y="38.8" transform="matrix(0.7071 -0.7071 0.7071 0.7071 15.3576 126.3364)" class="st0" width="11.6" height="11.6"/>
	
		<rect x="165.3" y="27.8" transform="matrix(0.7071 -0.7071 0.7071 0.7071 26.3301 130.8814)" class="st0" width="11.6" height="11.6"/>
	
		<rect x="132.5" y="82.8" transform="matrix(0.7071 -0.7071 0.7071 0.7071 -22.1302 123.7359)" class="st0" width="11.6" height="11.6"/>
	
		<rect x="143.5" y="71.8" transform="matrix(0.7071 -0.7071 0.7071 0.7071 -11.1578 128.2808)" class="st0" width="11.6" height="11.6"/>
	
		<rect x="154.4" y="60.8" transform="matrix(0.7071 -0.7071 0.7071 0.7071 -0.1853 132.8257)" class="st0" width="11.6" height="11.6"/>
	
		<rect x="176.4" y="38.9" transform="matrix(0.7071 -0.7071 0.7071 0.7071 21.7595 141.9156)" class="st0" width="11.6" height="11.6"/>
	
		<rect x="187.4" y="49.9" transform="matrix(0.7071 -0.7071 0.7071 0.7071 17.189 152.9499)" class="st0" width="11.6" height="11.6"/>
	
		<rect x="165.5" y="93.9" transform="matrix(0.7071 -0.7071 0.7071 0.7071 -20.2989 150.3493)" class="st0" width="11.6" height="11.6"/>
	
		<rect x="176.5" y="82.9" transform="matrix(0.7071 -0.7071 0.7071 0.7071 -9.3264 154.8943)" class="st0" width="11.6" height="11.6"/>
	
		<rect x="187.5" y="71.9" transform="matrix(0.7071 -0.7071 0.7071 0.7071 1.646 159.4392)" class="st0" width="11.6" height="11.6"/>
	
		<rect x="198.4" y="60.9" transform="matrix(0.7071 -0.7071 0.7071 0.7071 12.6185 163.9841)" class="st0" width="11.6" height="11.6"/>
	
		<rect x="198.5" y="83" transform="matrix(0.7071 -0.7071 0.7071 0.7071 -2.9245 170.4734)" class="st0" width="11.6" height="11.6"/>
	
		<rect x="209.5" y="72" transform="matrix(0.7071 -0.7071 0.7071 0.7071 8.0479 175.0184)" class="st0" width="11.6" height="11.6"/>
	
		<rect x="209.4" y="50" transform="matrix(0.7071 -0.7071 0.7071 0.7071 23.6122 168.5379)" class="st0" width="11.6" height="11.6"/>
	
		<rect x="220.5" y="61" transform="matrix(0.7071 -0.7071 0.7071 0.7071 19.0416 179.5721)" class="st0" width="11.6" height="11.6"/>
	
		<rect x="231.5" y="72" transform="matrix(0.7071 -0.7071 0.7071 0.7071 14.4711 190.6064)" class="st0" width="11.6" height="11.6"/>
</g>
<g id="Layer_2">
</g>
</svg>
